<?xml version="1.0" encoding="UTF-8" standalone="no"?><!DOCTYPE svg PUBLIC "-//W3C//DTD SVG 1.1//EN" "http://www.w3.org/Graphics/SVG/1.1/DTD/svg11.dtd"><svg xmlns="http://www.w3.org/2000/svg" xmlns:xlink="http://www.w3.org/1999/xlink" version="1.1" width="400" height="400" viewBox="0 0 400 400">
<defs>
</defs>
<path style="fill: rgb(255,255,255); fill-rule: evenodd" stroke-linecap="round" d="M 343.43 385.86 L 386.46 110.05 L 66.64 12.9 L 18.18 333.34 L 343.43 385.86 Z M 298.3 218.5 Q 322.2 194.6 322.2 161.2 Q 322.2 127.8 298.3 104.3 Q 274.8 80.5 241.4 80.5 L 76.3 80.5 L 76.3 153.9 L 102 153.9 L 102 319 L 175.4 319 L 175.4 241.9 L 241.4 241.9 Q 274.8 241.9 298.3 218.5 Z M 226.8 142.9 Q 248.8 142.9 248.8 161.2 Q 248.8 179.6 226.8 179.6 L 175.4 179.6 L 175.4 142.9 L 226.8 142.9 Z"/>
<path style="fill: rgb(255,255,255); fill-rule: evenodd" stroke-linecap="round" d="M 389.1 359.02 L 340.62 15.68 L 9.52 44.57 L 72.89 384.58 L 389.1 359.02 Z M 298.3 218.5 Q 322.2 194.6 322.2 161.2 Q 322.2 127.8 298.3 104.3 Q 274.8 80.5 241.4 80.5 L 76.3 80.5 L 76.3 153.9 L 102 153.9 L 102 319 L 175.4 319 L 175.4 241.9 L 241.4 241.9 Q 274.8 241.9 298.3 218.5 Z M 226.8 142.9 Q 248.8 142.9 248.8 161.2 Q 248.8 179.6 226.8 179.6 L 175.4 179.6 L 175.4 142.9 L 226.8 142.9 Z"/>
</svg>
